<?xml version="1.0" encoding="UTF-8" standalone="no"?>
<!DOCTYPE svg PUBLIC "-//W3C//DTD SVG 1.1//EN" "http://www.w3.org/Graphics/SVG/1.1/DTD/svg11.dtd">
<svg width="100%" height="100%" viewBox="0 0 50 45" version="1.1" xmlns="http://www.w3.org/2000/svg" xmlns:xlink="http://www.w3.org/1999/xlink" xml:space="preserve" xmlns:serif="http://www.serif.com/" style="fill-rule:evenodd;clip-rule:evenodd;stroke-linejoin:round;stroke-miterlimit:1.41421;">
    <g transform="matrix(1,0,0,1.04718,0,-1.99501)">
        <path d="M47.648,5.531C47.648,5.013 47.209,4.594 46.667,4.594C40.668,4.594 8.986,4.594 2.987,4.594C2.445,4.594 2.006,5.013 2.006,5.531C2.006,10.744 2.006,36.133 2.006,41.347C2.006,41.864 2.445,42.283 2.987,42.283C8.986,42.283 40.668,42.283 46.667,42.283C47.209,42.283 47.648,41.864 47.648,41.347C47.648,36.133 47.648,10.744 47.648,5.531Z" style="fill:rgb(116,116,116);"/>
    </g>
    <g transform="matrix(0.991919,0,0,1.42857,3.73682,-1.39143)">
        <path d="M42.568,4.528C42.568,4.347 42.464,4.173 42.279,4.044C42.095,3.916 41.844,3.844 41.583,3.844C36.564,3.844 13.884,3.844 8.865,3.844C8.604,3.844 8.353,3.916 8.169,4.044C7.984,4.173 7.88,4.347 7.88,4.528C7.88,4.805 7.88,5.123 7.88,5.4C7.88,5.581 7.984,5.755 8.169,5.884C8.353,6.012 8.604,6.084 8.865,6.084C13.884,6.084 36.564,6.084 41.583,6.084C41.844,6.084 42.095,6.012 42.279,5.884C42.464,5.755 42.568,5.581 42.568,5.4C42.568,5.123 42.568,4.805 42.568,4.528Z" style="fill:white;"/>
    </g>
    <g transform="matrix(0.92,0,0,0.942308,-0.729961,0.176231)">
        <rect x="4.808" y="4.164" width="3.2" height="3.328" style="fill:rgb(230,230,230);"/>
    </g>
    <g transform="matrix(0.92,0,0,0.942308,3.02204,0.176231)">
        <rect x="4.808" y="4.164" width="3.2" height="3.328" style="fill:rgb(230,230,230);"/>
    </g>
    <g transform="matrix(0.976965,0,0,0.986809,-0.00343835,-0.400365)">
        <rect x="3.784" y="9.156" width="43.264" height="32.576" style="fill:white;"/>
    </g>
    <g transform="matrix(1,0,0,1,-1.472,-2.5495)">
        <rect x="8.917" y="15.487" width="15.91" height="19.125" style="fill:rgb(171,195,210);"/>
    </g>
    <rect x="25" y="12.937" width="17.895" height="4.675" style="fill:rgb(191,191,191);"/>
    <g transform="matrix(1,0,0,2.57332,0,-13.2589)">
        <rect x="25" y="12.937" width="17.895" height="4.675" style="fill:rgb(191,191,191);"/>
    </g>
</svg>
